<svg width="24" height="24" viewBox="0 0 24 24" fill="none" xmlns="http://www.w3.org/2000/svg">
<g clip-path="url(#clip0_6295_62123)">
<path d="M12 3C7.032 3 3 7.032 3 12C3 16.968 7.032 21 12 21C16.968 21 21 16.968 21 12C21 7.032 16.968 3 12 3ZM9.561 15.861L6.33 12.63C5.979 12.279 5.979 11.712 6.33 11.361C6.681 11.01 7.248 11.01 7.599 11.361L10.2 13.953L16.392 7.761C16.743 7.41 17.31 7.41 17.661 7.761C18.012 8.112 18.012 8.679 17.661 9.03L10.83 15.861C10.488 16.212 9.912 16.212 9.561 15.861Z" fill="#FD3E81"/>
</g>
<defs>
<clipPath id="clip0_6295_62123">
<rect width="24" height="24" fill="white"/>
</clipPath>
</defs>
</svg>
