<svg width="96" height="96" viewBox="0 0 96 96" fill="none" xmlns="http://www.w3.org/2000/svg">
<circle cx="48" cy="48" r="48" fill="#FFECF7"/>
<g clip-path="url(#clip0_5851_32459)">
<path d="M60 46C60 47.34 60 48.66 60 50C62.4 50 65.52 50 68 50C68 48.66 68 47.34 68 46C65.52 46 62.4 46 60 46Z" fill="#FD3E81"/>
<path d="M56 59.22C57.92 60.64 60.42 62.52 62.4 64C63.2 62.94 64 61.86 64.8 60.8C62.82 59.32 60.32 57.44 58.4 56C57.6 57.08 56.8 58.16 56 59.22Z" fill="#FD3E81"/>
<path d="M64.8 35.2C64 34.14 63.2 33.06 62.4 32C60.42 33.48 57.92 35.36 56 36.8C56.8 37.86 57.6 38.94 58.4 40C60.32 38.56 62.82 36.7 64.8 35.2Z" fill="#FD3E81"/>
<path d="M32 42C29.8 42 28 43.8 28 46V50C28 52.2 29.8 54 32 54H34V62H38V54H40L50 60V36L40 42H32ZM42.06 45.42L46 43.06V52.94L42.06 50.58L41.1 50H40H32V46H40H41.1L42.06 45.42Z" fill="#FD3E81"/>
<path d="M55 48.0008C55 45.3408 53.84 42.9408 52 41.3008V54.6808C53.84 53.0608 55 50.6608 55 48.0008Z" fill="#FD3E81"/>
</g>
<defs>
<clipPath id="clip0_5851_32459">
<rect width="48" height="48" fill="white" transform="translate(24 24)"/>
</clipPath>
</defs>
</svg>
