<svg width="96" height="96" viewBox="0 0 96 96" fill="none" xmlns="http://www.w3.org/2000/svg">
<circle cx="48" cy="48" r="48" fill="#FFECF7"/>
<path d="M57.34 50.26C60.08 52.12 62 54.64 62 58V64H70V58C70 53.64 62.86 51.06 57.34 50.26Z" fill="#FD3E81"/>
<path d="M54 48C58.42 48 62 44.42 62 40C62 35.58 58.42 32 54 32C53.06 32 52.18 32.2 51.34 32.48C53 34.54 54 37.16 54 40C54 42.84 53 45.46 51.34 47.52C52.18 47.8 53.06 48 54 48Z" fill="#FD3E81"/>
<path d="M42 48C46.42 48 50 44.42 50 40C50 35.58 46.42 32 42 32C37.58 32 34 35.58 34 40C34 44.42 37.58 48 42 48ZM42 36C44.2 36 46 37.8 46 40C46 42.2 44.2 44 42 44C39.8 44 38 42.2 38 40C38 37.8 39.8 36 42 36Z" fill="#FD3E81"/>
<path d="M42 50C36.66 50 26 52.68 26 58V64H58V58C58 52.68 47.34 50 42 50ZM54 60H30V58.02C30.4 56.58 36.6 54 42 54C47.4 54 53.6 56.58 54 58V60Z" fill="#FD3E81"/>
</svg>
