<svg width="96" height="96" viewBox="0 0 96 96" fill="none" xmlns="http://www.w3.org/2000/svg">
<circle cx="48" cy="48" r="48" fill="#FFECF7"/>
<path d="M66 34H70V62H66V34ZM58 34H62V62H58V34ZM52 34H28C26.9 34 26 34.9 26 36V60C26 61.1 26.9 62 28 62H52C53.1 62 54 61.1 54 60V36C54 34.9 53.1 34 52 34ZM50 58H30V38H50V58Z" fill="#FD3E81"/>
<path d="M40 47.78C42.1539 47.78 43.9 46.0339 43.9 43.88C43.9 41.7261 42.1539 39.98 40 39.98C37.8461 39.98 36.1 41.7261 36.1 43.88C36.1 46.0339 37.8461 47.78 40 47.78Z" fill="#FD3E81"/>
<path d="M47.78 54.7C47.78 52.1 42.6 50.8 40 50.8C37.4 50.8 32.22 52.1 32.22 54.7V56H47.78V54.7Z" fill="#FD3E81"/>
</svg>
