<svg width="96" height="96" viewBox="0 0 96 96" fill="none" xmlns="http://www.w3.org/2000/svg">
<circle cx="48" cy="48" r="48" fill="#FFECF7"/>
<path d="M43 50C47.42 50 51 46.42 51 42C51 37.58 47.42 34 43 34C38.58 34 35 37.58 35 42C35 46.42 38.58 50 43 50ZM43 38C45.2 38 47 39.8 47 42C47 44.2 45.2 46 43 46C40.8 46 39 44.2 39 42C39 39.8 40.8 38 43 38Z" fill="#FD3E81"/>
<path d="M55.78 55.12C52.42 53.4 48.06 52 43 52C37.94 52 33.58 53.4 30.22 55.12C28.22 56.14 27 58.2 27 60.44V66H59V60.44C59 58.2 57.78 56.14 55.78 55.12ZM55 62H31V60.44C31 59.68 31.4 59 32.04 58.68C34.42 57.46 38.26 56 43 56C47.74 56 51.58 57.46 53.96 58.68C54.6 59 55 59.68 55 60.44V62Z" fill="#FD3E81"/>
<path d="M63.72 26L60.9 28.82C66.36 34.28 66.36 43.16 60.9 48.62L63.72 51.44C70.76 44.42 70.76 33.02 63.72 26Z" fill="#FD3E81"/>
<path d="M58.08 45.8C61.98 41.9 61.98 35.56 58.08 31.66L55.26 34.48C57.6 36.82 57.6 40.62 55.26 42.96L58.08 45.8Z" fill="#FD3E81"/>
</svg>
