<svg width="189" height="36" viewBox="0 0 189 36" fill="none" xmlns="http://www.w3.org/2000/svg">
<path d="M3.21875 23.0898C7.67962 22.9163 11.9254 20.7796 15.4532 18.2196C20.7882 14.3519 23.8581 8.08724 23.6812 1.5L19.5845 1.611C19.4423 6.84194 17.6802 20.6859 3.21875 23.0898Z" fill="url(#paint0_linear_6210_62073)"/>
<path d="M19.5845 1.60742L14.7802 1.73577C14.0032 1.75658 13.3893 2.40524 13.4101 3.18225L13.6598 12.4925C13.6598 12.4925 13.7361 20.946 3.21875 23.0897C17.6802 20.6858 19.4423 6.84183 19.5845 1.60742Z" fill="url(#paint1_linear_6210_62073)"/>
<path d="M13.6672 12.4902L4.85648 12.7261C3.80197 12.7539 2.97293 13.6315 3.00068 14.6825L3.0874 17.9397C11.3293 17.513 13.6672 12.4902 13.6672 12.4902Z" fill="url(#paint2_linear_6210_62073)"/>
<path d="M13.6701 12.4902C13.6701 12.4902 11.3321 17.513 3.09375 17.9432L3.2325 23.0874C13.7464 20.9437 13.6701 12.4902 13.6701 12.4902Z" fill="url(#paint3_linear_6210_62073)"/>
<path d="M34.4879 12.498C30.0236 12.5501 25.7222 14.5759 22.1286 17.0387C16.6895 20.7642 13.4531 26.9421 13.4531 33.5328H17.5498C17.8377 28.3053 19.9675 14.5099 34.4879 12.498Z" fill="url(#paint4_linear_6210_62073)"/>
<path d="M17.5625 33.5293H22.5541C23.2305 33.5293 23.7786 32.9813 23.7786 32.3049V22.8108C23.7786 22.8108 23.9277 14.3573 34.5006 12.498C19.9768 14.5099 17.8469 28.3053 17.5625 33.5293Z" fill="url(#paint5_linear_6210_62073)"/>
<path d="M23.7734 22.8091H33.0837C33.8642 22.8091 34.4955 22.1778 34.4955 21.3973V17.6406C26.2432 17.8522 23.7734 22.8091 23.7734 22.8091Z" fill="url(#paint6_linear_6210_62073)"/>
<path d="M23.7734 22.8108C23.7734 22.8108 26.2432 17.8539 34.4955 17.6423V12.498C23.9226 14.3573 23.7734 22.8108 23.7734 22.8108Z" fill="url(#paint7_linear_6210_62073)"/>
<path d="M44.1748 17.4545H41.9241V15.0521H44.1748V11.4358H46.9313V15.0521H50.0419V17.4545H46.9313V24.2067C46.9313 24.7124 47.0325 25.0918 47.2348 25.2941C47.4371 25.4964 47.7659 25.5976 48.2716 25.5976H50.3453V28H47.7153C46.4761 28 45.5657 27.7218 45.0094 27.1402C44.453 26.5838 44.1748 25.6987 44.1748 24.4848V17.4545ZM50.8314 18.0615C51.3624 17.0499 52.0958 16.2912 53.0568 15.7349C54.0178 15.1785 55.1052 14.9003 56.3443 14.9003C57.5835 14.9003 58.6709 15.1532 59.6319 15.659C60.5929 16.1648 61.3263 16.8982 61.8826 17.8086C62.439 18.7443 62.7171 19.8317 62.7424 21.0708C62.7424 21.4249 62.7171 21.7536 62.6666 22.1077H52.905V22.2594C52.9556 23.3974 53.3097 24.2825 53.9672 24.94C54.5994 25.5976 55.4592 25.9263 56.5214 25.9263C57.3559 25.9263 58.064 25.7493 58.6456 25.3447C59.202 24.94 59.5813 24.3837 59.7836 23.6503H62.5148C62.2619 24.9653 61.6297 26.0528 60.5929 26.8873C59.556 27.7471 58.2663 28.1517 56.7237 28.1517C55.3581 28.1517 54.1948 27.8988 53.1832 27.3425C52.1717 26.7861 51.413 26.0275 50.8566 25.0159C50.3003 24.0296 50.0474 22.8664 50.0474 21.5513C50.0474 20.2363 50.3003 19.073 50.8314 18.0615ZM59.9607 20.1099C59.8342 19.1742 59.4549 18.4408 58.8227 17.9097C58.1904 17.3787 57.4065 17.1005 56.4455 17.1005C55.5351 17.1005 54.7764 17.3787 54.1189 17.935C53.4614 18.4914 53.1074 19.1995 53.0062 20.1099H59.9607ZM74.5097 16.3165C75.4707 17.2775 75.9764 18.7948 75.9764 20.8685V28H73.2199V21.0203C73.2199 19.8064 72.9418 18.8707 72.436 18.2132C71.9049 17.581 71.1463 17.2522 70.1347 17.2522C69.0473 17.2522 68.1875 17.6315 67.5805 18.3902C66.9736 19.1489 66.6701 20.1604 66.6701 21.4755V28H63.9389V15.0521H66.3161L66.6195 16.7464C67.5805 15.5326 68.9714 14.9003 70.7669 14.9003C72.2843 14.9003 73.5487 15.3808 74.5097 16.3165ZM79.6236 23.7262C79.6741 24.409 79.9776 24.9653 80.5593 25.3952C81.1409 25.8252 81.8996 26.0275 82.8353 26.0275C83.6445 26.0275 84.3273 25.8757 84.8331 25.5723C85.3389 25.2688 85.617 24.8389 85.617 24.3078C85.617 23.8779 85.4906 23.5492 85.263 23.3216C85.0101 23.1192 84.7066 22.9675 84.302 22.8664C83.8974 22.7652 83.2905 22.664 82.4812 22.5629C81.3432 22.4364 80.4075 22.2594 79.6741 22.0318C78.9408 21.8042 78.3591 21.4502 77.9039 20.9444C77.4487 20.4386 77.2464 19.7811 77.2464 18.9213C77.2464 18.1373 77.4487 17.4292 77.9039 16.8223C78.3591 16.2154 78.9661 15.7349 79.75 15.3808C80.534 15.0521 81.4191 14.8751 82.4306 14.8751C84.0491 14.8751 85.3894 15.2544 86.401 15.9625C87.4125 16.6959 87.9689 17.7074 88.0701 19.0224H85.4147C85.3389 18.4408 85.0354 17.9603 84.5296 17.581C83.9985 17.2016 83.341 16.9993 82.5571 16.9993C81.7478 16.9993 81.1156 17.1511 80.6351 17.4545C80.1293 17.758 79.9017 18.1879 79.9017 18.6937C79.9017 19.0983 80.0029 19.3765 80.2558 19.5788C80.5087 19.7811 80.8121 19.9076 81.1915 19.9834C81.5455 20.0593 82.1525 20.1352 82.987 20.2363C84.0997 20.3628 85.0354 20.5398 85.7941 20.7927C86.5527 21.0456 87.1597 21.4249 87.6149 21.956C88.0701 22.487 88.2977 23.1951 88.2977 24.1055C88.2977 24.9148 88.0448 25.6481 87.5896 26.2551C87.1091 26.862 86.4516 27.3425 85.6423 27.6712C84.8078 28 83.8721 28.1517 82.8605 28.1517C81.1156 28.1517 79.6994 27.7724 78.6373 26.9884C77.5752 26.2045 77.0188 25.1171 76.9935 23.7262H79.6236ZM101.893 25.6228V28H100.452C99.5917 28 98.9848 27.823 98.6307 27.4689C98.2514 27.1149 98.0744 26.6091 98.0744 25.9263C97.0881 27.4184 95.6719 28.1517 93.8006 28.1517C92.3338 28.1517 91.1705 27.823 90.3107 27.1402C89.4256 26.4827 88.9957 25.547 88.9957 24.3584C88.9957 23.0434 89.4509 22.0065 90.4118 21.2984C91.3475 20.5904 92.7131 20.211 94.5339 20.211H97.7962V19.4271C97.7962 18.719 97.5433 18.1373 97.0375 17.7327C96.5318 17.3281 95.8237 17.1005 94.9386 17.1005C94.1293 17.1005 93.4718 17.2775 92.966 17.6315C92.4603 17.9856 92.1568 18.4408 92.0556 18.9972H89.375C89.5014 17.7074 90.0831 16.6959 91.0946 15.9878C92.1062 15.2797 93.4212 14.9003 95.065 14.9003C96.7847 14.9003 98.125 15.305 99.0859 16.1142C100.022 16.9235 100.502 18.0867 100.502 19.6041V24.7124C100.502 25.3194 100.78 25.6228 101.362 25.6228H101.893ZM97.7962 22.2341H94.4075C93.5477 22.2341 92.9155 22.4112 92.4603 22.7399C92.0051 23.0687 91.7774 23.5492 91.7774 24.1814C91.7774 24.7377 91.9798 25.1929 92.4097 25.5217C92.8396 25.8757 93.4212 26.0275 94.1799 26.0275C95.2926 26.0275 96.1777 25.724 96.8099 25.1171C97.4422 24.5101 97.7709 23.7009 97.7962 22.6893V22.2341ZM100.735 15.0521H103.618L106.577 24.9653L109.535 15.0521H112.039L114.871 24.9653L117.931 15.0521H120.713L116.414 28H113.48L110.749 19.1995L107.917 28L104.958 28.0253L100.735 15.0521ZM120.305 25.1929C120.634 24.8895 121.064 24.7124 121.569 24.7124C122.075 24.7124 122.48 24.8895 122.834 25.1929C123.163 25.5217 123.34 25.9263 123.34 26.4321C123.34 26.9379 123.163 27.3678 122.834 27.6712C122.48 28 122.075 28.1517 121.569 28.1517C121.064 28.1517 120.634 28 120.305 27.6712C119.976 27.3678 119.824 26.9379 119.824 26.4321C119.824 25.9263 119.976 25.5217 120.305 25.1929Z" fill="#FF4C8D"/>
<path d="M135.292 16.3165C136.253 17.2775 136.759 18.7948 136.759 20.8685V28H134.028V21.0203C134.028 19.8064 133.749 18.8707 133.218 18.2132C132.687 17.581 131.929 17.2522 130.917 17.2522C129.83 17.2522 128.97 17.6315 128.363 18.3902C127.756 19.1489 127.452 20.1604 127.452 21.4502V28H124.721V10.2978H127.452V16.9235C128.413 15.5831 129.779 14.9003 131.524 14.9003C133.067 14.9003 134.331 15.3808 135.292 16.3165ZM138.534 18.0615C139.066 17.0499 139.799 16.2912 140.76 15.7349C141.721 15.1785 142.808 14.9003 144.047 14.9003C145.287 14.9003 146.374 15.1532 147.335 15.659C148.296 16.1648 149.029 16.8982 149.586 17.8086C150.142 18.7443 150.42 19.8317 150.446 21.0708C150.446 21.4249 150.42 21.7536 150.37 22.1077H140.608V22.2594C140.659 23.3974 141.013 24.2825 141.67 24.94C142.303 25.5976 143.162 25.9263 144.224 25.9263C145.059 25.9263 145.767 25.7493 146.349 25.3447C146.905 24.94 147.284 24.3837 147.487 23.6503H150.218C149.965 24.9653 149.333 26.0528 148.296 26.8873C147.259 27.7471 145.969 28.1517 144.427 28.1517C143.061 28.1517 141.898 27.8988 140.886 27.3425C139.875 26.7861 139.116 26.0275 138.56 25.0159C138.003 24.0296 137.751 22.8664 137.751 21.5513C137.751 20.2363 138.003 19.073 138.534 18.0615ZM147.664 20.1099C147.537 19.1742 147.158 18.4408 146.526 17.9097C145.894 17.3787 145.11 17.1005 144.149 17.1005C143.238 17.1005 142.48 17.3787 141.822 17.935C141.165 18.4914 140.81 19.1995 140.709 20.1099H147.664ZM164.034 25.6228V28H162.592C161.732 28 161.125 27.823 160.771 27.4689C160.392 27.1149 160.215 26.6091 160.215 25.9263C159.229 27.4184 157.813 28.1517 155.941 28.1517C154.474 28.1517 153.311 27.823 152.451 27.1402C151.566 26.4827 151.136 25.547 151.136 24.3584C151.136 23.0434 151.591 22.0065 152.552 21.2984C153.488 20.5904 154.854 20.211 156.675 20.211H159.937V19.4271C159.937 18.719 159.684 18.1373 159.178 17.7327C158.672 17.3281 157.964 17.1005 157.079 17.1005C156.27 17.1005 155.612 17.2775 155.107 17.6315C154.601 17.9856 154.297 18.4408 154.196 18.9972H151.516C151.642 17.7074 152.224 16.6959 153.235 15.9878C154.247 15.2797 155.562 14.9003 157.206 14.9003C158.925 14.9003 160.266 15.305 161.227 16.1142C162.162 16.9235 162.643 18.0867 162.643 19.6041V24.7124C162.643 25.3194 162.921 25.6228 163.503 25.6228H164.034ZM159.937 22.2341H156.548C155.688 22.2341 155.056 22.4112 154.601 22.7399C154.146 23.0687 153.918 23.5492 153.918 24.1814C153.918 24.7377 154.12 25.1929 154.55 25.5217C154.98 25.8757 155.562 26.0275 156.32 26.0275C157.433 26.0275 158.318 25.724 158.951 25.1171C159.583 24.5101 159.911 23.7009 159.937 22.6893V22.2341ZM164.51 10.2978H167.241V28H164.51V10.2978ZM168.907 11.4358H171.638V15.0521H174.774V17.4545H171.638V24.2067C171.638 24.7124 171.739 25.0918 171.941 25.2941C172.144 25.4964 172.472 25.5976 172.978 25.5976H175.052V28H172.422C171.183 28 170.298 27.7218 169.741 27.1402C169.185 26.5838 168.907 25.6987 168.907 24.4848V11.4358ZM186.097 16.3165C187.058 17.2775 187.564 18.7948 187.564 20.8685V28H184.833V21.0203C184.833 19.8064 184.554 18.8707 184.023 18.2132C183.492 17.581 182.734 17.2522 181.722 17.2522C180.635 17.2522 179.775 17.6315 179.168 18.3902C178.561 19.1489 178.257 20.1604 178.257 21.4502V28H175.526V10.2978H178.257V16.9235C179.218 15.5831 180.584 14.9003 182.329 14.9003C183.872 14.9003 185.136 15.3808 186.097 16.3165Z" fill="#2D4FA9"/>
<defs>
<linearGradient id="paint0_linear_6210_62073" x1="5.31097" y1="25.9315" x2="27.2681" y2="-1.80447" gradientUnits="userSpaceOnUse">
<stop stop-color="#25A9E0"/>
<stop offset="1" stop-color="#2E3191"/>
</linearGradient>
<linearGradient id="paint1_linear_6210_62073" x1="16.461" y1="15.3984" x2="7.91619" y2="10.2488" gradientUnits="userSpaceOnUse">
<stop stop-color="#25A9E0"/>
<stop offset="1" stop-color="#2E3191"/>
</linearGradient>
<linearGradient id="paint2_linear_6210_62073" x1="16.52" y1="9.32371" x2="4.37131" y2="15.9425" gradientUnits="userSpaceOnUse">
<stop stop-color="#25A9E0"/>
<stop offset="1" stop-color="#2E3191"/>
</linearGradient>
<linearGradient id="paint3_linear_6210_62073" x1="2.6362" y1="9.32775" x2="12.5961" y2="23.8248" gradientUnits="userSpaceOnUse">
<stop stop-color="#25A9E0"/>
<stop offset="1" stop-color="#2E3191"/>
</linearGradient>
<linearGradient id="paint4_linear_6210_62073" x1="32.4727" y1="9.59926" x2="9.78016" y2="36.7367" gradientUnits="userSpaceOnUse">
<stop stop-color="#B22A77"/>
<stop offset="1" stop-color="#FE3E81"/>
</linearGradient>
<linearGradient id="paint5_linear_6210_62073" x1="21.049" y1="19.8268" x2="29.5219" y2="25.2478" gradientUnits="userSpaceOnUse">
<stop stop-color="#FF9FD4"/>
<stop offset="1" stop-color="#FE3E81"/>
</linearGradient>
<linearGradient id="paint6_linear_6210_62073" x1="20.8736" y1="25.9737" x2="33.1953" y2="19.6829" gradientUnits="userSpaceOnUse">
<stop offset="1.38522e-07" stop-color="#FF9FD4"/>
<stop offset="1" stop-color="#FE3E81"/>
</linearGradient>
<linearGradient id="paint7_linear_6210_62073" x1="34.7167" y1="26.2674" x2="25.1487" y2="11.5083" gradientUnits="userSpaceOnUse">
<stop offset="2.82373e-07" stop-color="#FE3E81"/>
<stop offset="1" stop-color="#B22A77"/>
</linearGradient>
</defs>
</svg>
