<svg width="16" height="16" viewBox="0 0 16 16" fill="none" xmlns="http://www.w3.org/2000/svg">
<path d="M1.42969 10.2615C3.4123 10.1844 5.29932 9.23471 6.86722 8.09694C9.23833 6.37796 10.6027 3.59368 10.5241 0.666016L8.70336 0.71535C8.64016 3.04021 7.85698 9.19308 1.42969 10.2615Z" fill="url(#paint0_linear_5857_29482)"/>
<path d="M8.70337 0.712891L6.56813 0.769932C6.22279 0.779182 5.94991 1.06748 5.95916 1.41282L6.07016 5.5507C6.07016 5.5507 6.10408 9.30779 1.42969 10.2606C7.85698 9.19217 8.64016 3.0393 8.70337 0.712891Z" fill="url(#paint1_linear_5857_29482)"/>
<path d="M6.07692 5.55078L2.16104 5.65562C1.69237 5.66795 1.3239 6.058 1.33624 6.52513L1.37478 7.97277C5.03783 7.78314 6.07692 5.55078 6.07692 5.55078Z" fill="url(#paint2_linear_5857_29482)"/>
<path d="M6.0756 5.55078C6.0756 5.55078 5.03651 7.78314 1.375 7.97431L1.43667 10.2606C6.10952 9.30787 6.0756 5.55078 6.0756 5.55078Z" fill="url(#paint3_linear_5857_29482)"/>
<path d="M15.3253 5.55469C13.3412 5.57781 11.4295 6.47816 9.83232 7.57275C7.41496 9.22853 5.97656 11.9743 5.97656 14.9035H7.79729C7.92525 12.5802 8.87185 6.44887 15.3253 5.55469Z" fill="url(#paint4_linear_5857_29482)"/>
<path d="M7.80469 14.9019H10.0232C10.3238 14.9019 10.5674 14.6583 10.5674 14.3577V10.1381C10.5674 10.1381 10.6337 6.38103 15.3327 5.55469C8.8777 6.44887 7.93111 12.5802 7.80469 14.9019Z" fill="url(#paint5_linear_5857_29482)"/>
<path d="M10.5625 10.137H14.7004C15.0473 10.137 15.3279 9.85637 15.3279 9.50949V7.83984C11.6602 7.93389 10.5625 10.137 10.5625 10.137Z" fill="url(#paint6_linear_5857_29482)"/>
<path d="M10.5625 10.1381C10.5625 10.1381 11.6602 7.93505 15.3279 7.84101V5.55469C10.6288 6.38103 10.5625 10.1381 10.5625 10.1381Z" fill="url(#paint7_linear_5857_29482)"/>
<defs>
<linearGradient id="paint0_linear_5857_29482" x1="2.35956" y1="11.5245" x2="12.1183" y2="-0.802637" gradientUnits="userSpaceOnUse">
<stop stop-color="#25A9E0"/>
<stop offset="1" stop-color="#2E3191"/>
</linearGradient>
<linearGradient id="paint1_linear_5857_29482" x1="7.31513" y1="6.84221" x2="3.51744" y2="4.55349" gradientUnits="userSpaceOnUse">
<stop stop-color="#25A9E0"/>
<stop offset="1" stop-color="#2E3191"/>
</linearGradient>
<linearGradient id="paint2_linear_5857_29482" x1="7.34481" y1="4.14344" x2="1.94541" y2="7.08513" gradientUnits="userSpaceOnUse">
<stop stop-color="#25A9E0"/>
<stop offset="1" stop-color="#2E3191"/>
</linearGradient>
<linearGradient id="paint3_linear_5857_29482" x1="1.17165" y1="4.14523" x2="5.59827" y2="10.5884" gradientUnits="userSpaceOnUse">
<stop stop-color="#25A9E0"/>
<stop offset="1" stop-color="#2E3191"/>
</linearGradient>
<linearGradient id="paint4_linear_5857_29482" x1="14.4297" y1="4.26634" x2="4.34414" y2="16.3274" gradientUnits="userSpaceOnUse">
<stop stop-color="#B22A77"/>
<stop offset="1" stop-color="#FE3E81"/>
</linearGradient>
<linearGradient id="paint5_linear_5857_29482" x1="9.35423" y1="8.8119" x2="13.12" y2="11.2213" gradientUnits="userSpaceOnUse">
<stop stop-color="#FF9FD4"/>
<stop offset="1" stop-color="#FE3E81"/>
</linearGradient>
<linearGradient id="paint6_linear_5857_29482" x1="9.2737" y1="11.5434" x2="14.75" y2="8.74751" gradientUnits="userSpaceOnUse">
<stop offset="1.38522e-07" stop-color="#FF9FD4"/>
<stop offset="1" stop-color="#FE3E81"/>
</linearGradient>
<linearGradient id="paint7_linear_5857_29482" x1="15.4262" y1="11.6744" x2="11.1737" y2="5.11478" gradientUnits="userSpaceOnUse">
<stop offset="2.82373e-07" stop-color="#FE3E81"/>
<stop offset="1" stop-color="#B22A77"/>
</linearGradient>
</defs>
</svg>
