<svg width="64" height="64" viewBox="0 0 64 64" fill="none" xmlns="http://www.w3.org/2000/svg">
<path d="M5.71875 41.0478C13.6492 40.7395 21.1973 36.9408 27.4689 32.3897C36.9533 25.5138 42.4109 14.3767 42.0964 2.66602L34.8135 2.86335C34.5606 12.1628 31.4279 36.7743 5.71875 41.0478Z" fill="url(#paint0_linear_5857_29485)"/>
<path d="M34.8135 2.85547L26.2725 3.08364C24.8912 3.12064 23.7997 4.27382 23.8367 5.65517L24.2807 22.2067C24.2807 22.2067 24.4163 37.2351 5.71875 41.0461C31.4279 36.7726 34.5606 12.1611 34.8135 2.85547Z" fill="url(#paint1_linear_5857_29485)"/>
<path d="M24.2999 22.2031L8.63635 22.6225C6.76166 22.6718 5.28781 24.232 5.33714 26.1005L5.49131 31.8911C20.1435 31.1326 24.2999 22.2031 24.2999 22.2031Z" fill="url(#paint2_linear_5857_29485)"/>
<path d="M24.3024 22.2031C24.3024 22.2031 20.146 31.1326 5.5 31.8972L5.74667 41.0425C24.4381 37.2315 24.3024 22.2031 24.3024 22.2031Z" fill="url(#paint3_linear_5857_29485)"/>
<path d="M61.2936 22.2188C53.357 22.3113 45.7102 25.9126 39.3215 30.291C29.652 36.9141 23.8984 47.8971 23.8984 59.6139H31.1814C31.6932 50.3206 35.4796 25.7955 61.2936 22.2188Z" fill="url(#paint4_linear_5857_29485)"/>
<path d="M31.2031 59.6077H40.0771C41.2796 59.6077 42.2539 58.6334 42.2539 57.4309V40.5525C42.2539 40.5525 42.5191 25.5241 61.3153 22.2188C35.4952 25.7955 31.7088 50.3206 31.2031 59.6077Z" fill="url(#paint5_linear_5857_29485)"/>
<path d="M42.25 40.5517H58.8015C60.1891 40.5517 61.3114 39.4294 61.3114 38.0419V31.3633C46.6407 31.7395 42.25 40.5517 42.25 40.5517Z" fill="url(#paint6_linear_5857_29485)"/>
<path d="M42.25 40.5525C42.25 40.5525 46.6407 31.7402 61.3114 31.364V22.2188C42.5152 25.5241 42.25 40.5525 42.25 40.5525Z" fill="url(#paint7_linear_5857_29485)"/>
<defs>
<linearGradient id="paint0_linear_5857_29485" x1="9.43825" y1="46.0999" x2="48.4732" y2="-3.20859" gradientUnits="userSpaceOnUse">
<stop stop-color="#25A9E0"/>
<stop offset="1" stop-color="#2E3191"/>
</linearGradient>
<linearGradient id="paint1_linear_5857_29485" x1="29.2605" y1="27.3727" x2="14.0698" y2="18.2179" gradientUnits="userSpaceOnUse">
<stop stop-color="#25A9E0"/>
<stop offset="1" stop-color="#2E3191"/>
</linearGradient>
<linearGradient id="paint2_linear_5857_29485" x1="29.3714" y1="16.5737" x2="7.77382" y2="28.3405" gradientUnits="userSpaceOnUse">
<stop stop-color="#25A9E0"/>
<stop offset="1" stop-color="#2E3191"/>
</linearGradient>
<linearGradient id="paint3_linear_5857_29485" x1="4.68658" y1="16.5809" x2="22.3931" y2="42.3535" gradientUnits="userSpaceOnUse">
<stop stop-color="#25A9E0"/>
<stop offset="1" stop-color="#2E3191"/>
</linearGradient>
<linearGradient id="paint4_linear_5857_29485" x1="57.711" y1="17.0654" x2="17.3687" y2="65.3097" gradientUnits="userSpaceOnUse">
<stop stop-color="#B22A77"/>
<stop offset="1" stop-color="#FE3E81"/>
</linearGradient>
<linearGradient id="paint5_linear_5857_29485" x1="37.4013" y1="35.2476" x2="52.4643" y2="44.885" gradientUnits="userSpaceOnUse">
<stop stop-color="#FF9FD4"/>
<stop offset="1" stop-color="#FE3E81"/>
</linearGradient>
<linearGradient id="paint6_linear_5857_29485" x1="37.0948" y1="46.1776" x2="59" y2="34.994" gradientUnits="userSpaceOnUse">
<stop offset="1.38522e-07" stop-color="#FF9FD4"/>
<stop offset="1" stop-color="#FE3E81"/>
</linearGradient>
<linearGradient id="paint7_linear_5857_29485" x1="61.7048" y1="46.6976" x2="44.6949" y2="20.4591" gradientUnits="userSpaceOnUse">
<stop offset="2.82373e-07" stop-color="#FE3E81"/>
<stop offset="1" stop-color="#B22A77"/>
</linearGradient>
</defs>
</svg>
