<svg width="96" height="96" viewBox="0 0 96 96" fill="none" xmlns="http://www.w3.org/2000/svg">
<path d="M8.57031 61.5727C20.466 61.1102 31.7881 55.4122 41.1955 48.5856C55.4222 38.2717 63.6085 21.566 63.1368 4L52.2124 4.296C51.8331 18.2452 47.1341 55.1624 8.57031 61.5727Z" fill="url(#paint0_linear_5857_29486)"/>
<path d="M52.2124 4.28516L39.401 4.62741C37.3289 4.68291 35.6917 6.41268 35.7472 8.48471L36.4132 33.312C36.4132 33.312 36.6167 55.8546 8.57031 61.5711C47.1341 55.1608 51.8331 18.2436 52.2124 4.28516Z" fill="url(#paint1_linear_5857_29486)"/>
<path d="M36.4459 33.3066L12.9506 33.9356C10.1386 34.0096 7.9278 36.3499 8.0018 39.1527L8.23306 47.8386C30.2113 46.7008 36.4459 33.3066 36.4459 33.3066Z" fill="url(#paint2_linear_5857_29486)"/>
<path d="M36.4536 33.3066C36.4536 33.3066 30.219 46.7008 8.25 47.8478L8.62 61.5657C36.6571 55.8492 36.4536 33.3066 36.4536 33.3066Z" fill="url(#paint3_linear_5857_29486)"/>
<path d="M91.9287 33.3281C80.0238 33.4669 68.5536 38.8689 58.9705 45.4365C44.4663 55.3712 35.8359 71.8456 35.8359 89.4208H46.7603C47.5281 75.4809 53.2077 38.6932 91.9287 33.3281Z" fill="url(#paint4_linear_5857_29486)"/>
<path d="M46.7891 89.4116H60.1C61.9038 89.4116 63.3653 87.9501 63.3653 86.1463V60.8287C63.3653 60.8287 63.763 38.2862 91.9574 33.3281C53.2271 38.6932 47.5476 75.4809 46.7891 89.4116Z" fill="url(#paint5_linear_5857_29486)"/>
<path d="M63.3672 60.8276H88.1945C90.2758 60.8276 91.9593 59.1441 91.9593 57.0628V47.0449C69.9533 47.6092 63.3672 60.8276 63.3672 60.8276Z" fill="url(#paint6_linear_5857_29486)"/>
<path d="M63.3672 60.8287C63.3672 60.8287 69.9533 47.6103 91.9593 47.0461V33.3281C63.7649 38.2862 63.3672 60.8287 63.3672 60.8287Z" fill="url(#paint7_linear_5857_29486)"/>
<defs>
<linearGradient id="paint0_linear_5857_29486" x1="14.1496" y1="69.1508" x2="72.702" y2="-4.81192" gradientUnits="userSpaceOnUse">
<stop stop-color="#25A9E0"/>
<stop offset="1" stop-color="#2E3191"/>
</linearGradient>
<linearGradient id="paint1_linear_5857_29486" x1="43.883" y1="41.0611" x2="21.0968" y2="27.3287" gradientUnits="userSpaceOnUse">
<stop stop-color="#25A9E0"/>
<stop offset="1" stop-color="#2E3191"/>
</linearGradient>
<linearGradient id="paint2_linear_5857_29486" x1="44.0532" y1="24.8626" x2="11.6568" y2="42.5127" gradientUnits="userSpaceOnUse">
<stop stop-color="#25A9E0"/>
<stop offset="1" stop-color="#2E3191"/>
</linearGradient>
<linearGradient id="paint3_linear_5857_29486" x1="7.02988" y1="24.8733" x2="33.5896" y2="63.5321" gradientUnits="userSpaceOnUse">
<stop stop-color="#25A9E0"/>
<stop offset="1" stop-color="#2E3191"/>
</linearGradient>
<linearGradient id="paint4_linear_5857_29486" x1="86.5548" y1="25.598" x2="26.0414" y2="97.9646" gradientUnits="userSpaceOnUse">
<stop stop-color="#B22A77"/>
<stop offset="1" stop-color="#FE3E81"/>
</linearGradient>
<linearGradient id="paint5_linear_5857_29486" x1="56.0863" y1="52.8714" x2="78.6808" y2="67.3276" gradientUnits="userSpaceOnUse">
<stop stop-color="#FF9FD4"/>
<stop offset="1" stop-color="#FE3E81"/>
</linearGradient>
<linearGradient id="paint6_linear_5857_29486" x1="55.6344" y1="69.2664" x2="88.4922" y2="52.4909" gradientUnits="userSpaceOnUse">
<stop offset="1.38522e-07" stop-color="#FF9FD4"/>
<stop offset="1" stop-color="#FE3E81"/>
</linearGradient>
<linearGradient id="paint7_linear_5857_29486" x1="92.5493" y1="70.0465" x2="67.0346" y2="30.6887" gradientUnits="userSpaceOnUse">
<stop offset="2.82373e-07" stop-color="#FE3E81"/>
<stop offset="1" stop-color="#B22A77"/>
</linearGradient>
</defs>
</svg>
