<svg width="252" height="48" viewBox="0 0 252 48" fill="none" xmlns="http://www.w3.org/2000/svg">
<path d="M4.28906 30.7864C10.2369 30.5551 15.898 27.7061 20.6017 24.2928C27.715 19.1358 31.8082 10.783 31.5723 2L26.1101 2.148C25.9205 9.12259 23.5709 27.5812 4.28906 30.7864Z" fill="url(#paint0_linear_5857_29487)"/>
<path d="M26.1101 2.14258L19.7044 2.3137C18.6684 2.34145 17.8497 3.20634 17.8775 4.24235L18.2105 16.656C18.2105 16.656 18.3122 27.9273 4.28906 30.7856C23.5709 27.5804 25.9205 9.12179 26.1101 2.14258Z" fill="url(#paint1_linear_5857_29487)"/>
<path d="M18.223 16.6523L6.47531 16.9668C5.06929 17.0038 3.9639 18.174 4.0009 19.5754L4.11653 23.9183C15.1057 23.3494 18.223 16.6523 18.223 16.6523Z" fill="url(#paint2_linear_5857_29487)"/>
<path d="M18.2268 16.6523C18.2268 16.6523 15.1095 23.3494 4.125 23.9229L4.31 30.7819C18.3286 27.9236 18.2268 16.6523 18.2268 16.6523Z" fill="url(#paint3_linear_5857_29487)"/>
<path d="M45.9682 16.6641C40.0158 16.7334 34.2807 19.4345 29.4891 22.7183C22.2371 27.6856 17.9219 35.9228 17.9219 44.7104H23.3841C23.7679 37.7405 26.6077 19.3466 45.9682 16.6641Z" fill="url(#paint4_linear_5857_29487)"/>
<path d="M23.3984 44.7058H30.0539C30.9558 44.7058 31.6865 43.975 31.6865 43.0732V30.4144C31.6865 30.4144 31.8854 19.1431 45.9826 16.6641C26.6175 19.3466 23.7777 37.7405 23.3984 44.7058Z" fill="url(#paint5_linear_5857_29487)"/>
<path d="M31.6875 30.4128H44.1012C45.1418 30.4128 45.9836 29.5711 45.9836 28.5304V23.5215C34.9805 23.8036 31.6875 30.4128 31.6875 30.4128Z" fill="url(#paint6_linear_5857_29487)"/>
<path d="M31.6875 30.4144C31.6875 30.4144 34.9805 23.8052 45.9836 23.523V16.6641C31.8864 19.1431 31.6875 30.4144 31.6875 30.4144Z" fill="url(#paint7_linear_5857_29487)"/>
<path d="M58.8998 22.9394V32.3131C58.8998 33.9316 59.2707 35.1118 60.0125 35.8536C60.7543 36.6291 61.9682 37 63.6204 37H67.1271V33.7967H64.3622C63.6878 33.7967 63.2495 33.6619 62.9797 33.3921C62.71 33.1224 62.5751 32.6166 62.5751 31.9422V22.9394H66.7225V19.7361H62.5751V14.9144H58.8998V19.7361H55.8988V22.9394H58.8998ZM67.7751 23.7486C67.0671 25.0974 66.7299 26.6484 66.7299 28.4018C66.7299 30.1551 67.0671 31.7062 67.8089 33.0212C68.5507 34.37 69.5622 35.3815 70.911 36.1233C72.2597 36.8651 73.8108 37.2023 75.6316 37.2023C77.6884 37.2023 79.408 36.6628 80.7905 35.5164C82.173 34.4037 83.0159 32.9538 83.3531 31.2004H79.7115C79.4418 32.1782 78.936 32.9201 78.1942 33.4596C77.4186 33.9991 76.4745 34.2351 75.3618 34.2351C73.9456 34.2351 72.7992 33.7967 71.9562 32.9201C71.0796 32.0434 70.6075 30.8632 70.5401 29.3459V29.1436H83.5554C83.6229 28.6715 83.6566 28.2332 83.6566 27.7611C83.6229 26.1089 83.252 24.659 82.5101 23.4114C81.7683 22.1976 80.7905 21.2197 79.5092 20.5454C78.2279 19.871 76.778 19.5338 75.1258 19.5338C73.4736 19.5338 72.0237 19.9047 70.7424 20.6465C69.4611 21.3883 68.4832 22.3999 67.7751 23.7486ZM79.9475 26.4798H70.6749C70.8098 25.2659 71.2819 24.3218 72.1586 23.58C73.0352 22.8382 74.0468 22.4673 75.2607 22.4673C76.542 22.4673 77.5872 22.8382 78.4302 23.5463C79.2732 24.2544 79.7789 25.2322 79.9475 26.4798ZM99.3462 21.422C98.0649 20.1744 96.379 19.5338 94.3559 19.5338C91.9619 19.5338 90.1074 20.3768 88.826 21.9953L88.4214 19.7361H85.2519V37H88.8935V28.3006C88.8935 26.5473 89.2981 25.1985 90.1074 24.187C90.9166 23.1754 92.063 22.6696 93.5129 22.6696C94.8617 22.6696 95.8732 23.108 96.5813 23.9509C97.2557 24.8276 97.6266 26.0752 97.6266 27.6937V37H101.302V27.4914C101.302 24.7265 100.628 22.7033 99.3462 21.422ZM106.165 31.3016H102.658C102.692 33.1561 103.434 34.606 104.85 35.6513C106.266 36.6965 108.154 37.2023 110.481 37.2023C111.829 37.2023 113.077 37 114.19 36.5617C115.269 36.1233 116.145 35.4827 116.786 34.6734C117.393 33.8642 117.73 32.8863 117.73 31.8073C117.73 30.5935 117.427 29.6494 116.82 28.9413C116.213 28.2332 115.404 27.7274 114.392 27.3902C113.381 27.053 112.133 26.817 110.649 26.6484C109.537 26.5135 108.727 26.4124 108.255 26.3112C107.75 26.2101 107.345 26.0415 107.008 25.7717C106.671 25.502 106.536 25.1311 106.536 24.5916C106.536 23.9172 106.839 23.344 107.513 22.9394C108.154 22.5347 108.997 22.3324 110.076 22.3324C111.121 22.3324 111.998 22.6022 112.706 23.108C113.381 23.6137 113.785 24.2544 113.886 25.0299H117.427C117.292 23.2766 116.55 21.9278 115.201 20.95C113.853 20.0059 112.065 19.5001 109.908 19.5001C108.559 19.5001 107.379 19.7361 106.333 20.1744C105.288 20.6465 104.479 21.2872 103.872 22.0964C103.265 22.9057 102.995 23.8498 102.995 24.895C102.995 26.0415 103.265 26.9182 103.872 27.5925C104.479 28.2669 105.254 28.739 106.232 29.0424C107.21 29.3459 108.458 29.5819 109.975 29.7505C111.054 29.8854 111.863 30.0203 112.403 30.1551C112.942 30.29 113.347 30.4923 113.684 30.7621C113.987 31.0655 114.156 31.5039 114.156 32.0771C114.156 32.7852 113.785 33.3584 113.111 33.763C112.436 34.1676 111.526 34.37 110.447 34.37C109.199 34.37 108.188 34.1002 107.412 33.527C106.637 32.9538 106.232 32.212 106.165 31.3016ZM135.857 33.8305H135.149C134.374 33.8305 134.003 33.4258 134.003 32.6166V25.8054C134.003 23.7823 133.362 22.2313 132.115 21.1523C130.833 20.0733 129.046 19.5338 126.753 19.5338C124.562 19.5338 122.808 20.0396 121.46 20.9837C120.111 21.9278 119.335 23.2766 119.167 24.9962H122.741C122.876 24.2544 123.28 23.6475 123.955 23.1754C124.629 22.7033 125.506 22.4673 126.585 22.4673C127.765 22.4673 128.709 22.7708 129.383 23.3103C130.058 23.8498 130.395 24.6253 130.395 25.5694V26.6147H126.045C123.618 26.6147 121.797 27.1205 120.549 28.0646C119.268 29.0087 118.661 30.3912 118.661 32.1445C118.661 33.7293 119.234 34.9769 120.414 35.8536C121.561 36.764 123.112 37.2023 125.067 37.2023C127.563 37.2023 129.451 36.2245 130.766 34.2351C130.766 35.1455 131.002 35.8199 131.508 36.2919C131.98 36.764 132.789 37 133.935 37H135.857V33.8305ZM130.395 29.3122V29.9191C130.361 31.2678 129.923 32.3468 129.08 33.1561C128.237 33.9653 127.057 34.37 125.573 34.37C124.562 34.37 123.786 34.1676 123.213 33.6956C122.64 33.2572 122.37 32.6503 122.37 31.9085C122.37 31.0655 122.673 30.4249 123.28 29.9865C123.887 29.5482 124.73 29.3122 125.877 29.3122H130.395ZM134.313 19.7361L139.944 37.0337L143.889 37L147.666 25.2659L151.307 37H155.219L160.951 19.7361H157.242L153.162 32.9538L149.385 19.7361H146.047L142.102 32.9538L138.157 19.7361H134.313ZM160.407 33.2572C159.968 33.6956 159.766 34.2351 159.766 34.9095C159.766 35.5838 159.968 36.157 160.407 36.5617C160.845 37 161.418 37.2023 162.092 37.2023C162.767 37.2023 163.306 37 163.778 36.5617C164.217 36.157 164.453 35.5838 164.453 34.9095C164.453 34.2351 164.217 33.6956 163.778 33.2572C163.306 32.8526 162.767 32.6166 162.092 32.6166C161.418 32.6166 160.845 32.8526 160.407 33.2572Z" fill="#FF4C8D"/>
<path d="M180.389 21.422C179.108 20.1744 177.422 19.5338 175.365 19.5338C173.039 19.5338 171.218 20.4442 169.937 22.2313V13.397H166.295V37H169.937V28.2669C169.937 26.5473 170.341 25.1985 171.15 24.187C171.96 23.1754 173.106 22.6696 174.556 22.6696C175.905 22.6696 176.916 23.108 177.624 23.9509C178.332 24.8276 178.703 26.0752 178.703 27.6937V37H182.345V27.4914C182.345 24.7265 181.671 22.7033 180.389 21.422ZM184.713 23.7486C184.005 25.0974 183.667 26.6484 183.667 28.4018C183.667 30.1551 184.005 31.7062 184.746 33.0212C185.488 34.37 186.5 35.3815 187.848 36.1233C189.197 36.8651 190.748 37.2023 192.569 37.2023C194.626 37.2023 196.346 36.6628 197.728 35.5164C199.11 34.4037 199.953 32.9538 200.291 31.2004H196.649C196.379 32.1782 195.873 32.9201 195.132 33.4596C194.356 33.9991 193.412 34.2351 192.299 34.2351C190.883 34.2351 189.737 33.7967 188.894 32.9201C188.017 32.0434 187.545 30.8632 187.478 29.3459V29.1436H200.493C200.56 28.6715 200.594 28.2332 200.594 27.7611C200.56 26.1089 200.189 24.659 199.448 23.4114C198.706 22.1976 197.728 21.2197 196.447 20.5454C195.165 19.871 193.715 19.5338 192.063 19.5338C190.411 19.5338 188.961 19.9047 187.68 20.6465C186.399 21.3883 185.421 22.3999 184.713 23.7486ZM196.885 26.4798H187.612C187.747 25.2659 188.219 24.3218 189.096 23.58C189.973 22.8382 190.984 22.4673 192.198 22.4673C193.479 22.4673 194.525 22.8382 195.368 23.5463C196.211 24.2544 196.716 25.2322 196.885 26.4798ZM218.711 33.8305H218.003C217.228 33.8305 216.857 33.4258 216.857 32.6166V25.8054C216.857 23.7823 216.216 22.2313 214.969 21.1523C213.687 20.0733 211.9 19.5338 209.607 19.5338C207.416 19.5338 205.662 20.0396 204.314 20.9837C202.965 21.9278 202.189 23.2766 202.021 24.9962H205.595C205.73 24.2544 206.134 23.6475 206.809 23.1754C207.483 22.7033 208.36 22.4673 209.439 22.4673C210.619 22.4673 211.563 22.7708 212.237 23.3103C212.912 23.8498 213.249 24.6253 213.249 25.5694V26.6147H208.899C206.472 26.6147 204.651 27.1205 203.403 28.0646C202.122 29.0087 201.515 30.3912 201.515 32.1445C201.515 33.7293 202.088 34.9769 203.268 35.8536C204.415 36.764 205.966 37.2023 207.922 37.2023C210.417 37.2023 212.305 36.2245 213.62 34.2351C213.62 35.1455 213.856 35.8199 214.362 36.2919C214.834 36.764 215.643 37 216.789 37H218.711V33.8305ZM213.249 29.3122V29.9191C213.215 31.2678 212.777 32.3468 211.934 33.1561C211.091 33.9653 209.911 34.37 208.427 34.37C207.416 34.37 206.64 34.1676 206.067 33.6956C205.494 33.2572 205.224 32.6503 205.224 31.9085C205.224 31.0655 205.527 30.4249 206.134 29.9865C206.741 29.5482 207.584 29.3122 208.731 29.3122H213.249ZM219.346 13.397V37H222.988V13.397H219.346ZM225.209 14.9144V32.3131C225.209 33.9316 225.58 35.1118 226.322 35.8536C227.063 36.6291 228.244 37 229.896 37H233.402V33.7967H230.638C229.963 33.7967 229.525 33.6619 229.255 33.3921C228.985 33.1224 228.85 32.6166 228.85 31.9422V22.9394H233.032V19.7361H228.85V14.9144H225.209ZM248.129 21.422C246.848 20.1744 245.162 19.5338 243.105 19.5338C240.779 19.5338 238.958 20.4442 237.677 22.2313V13.397H234.035V37H237.677V28.2669C237.677 26.5473 238.081 25.1985 238.89 24.187C239.7 23.1754 240.846 22.6696 242.296 22.6696C243.645 22.6696 244.656 23.108 245.364 23.9509C246.072 24.8276 246.443 26.0752 246.443 27.6937V37H250.085V27.4914C250.085 24.7265 249.411 22.7033 248.129 21.422Z" fill="#2D4FA9"/>
<defs>
<linearGradient id="paint0_linear_5857_29487" x1="7.07868" y1="34.5754" x2="36.3549" y2="-2.40596" gradientUnits="userSpaceOnUse">
<stop stop-color="#25A9E0"/>
<stop offset="1" stop-color="#2E3191"/>
</linearGradient>
<linearGradient id="paint1_linear_5857_29487" x1="21.9454" y1="20.5305" x2="10.5523" y2="13.6644" gradientUnits="userSpaceOnUse">
<stop stop-color="#25A9E0"/>
<stop offset="1" stop-color="#2E3191"/>
</linearGradient>
<linearGradient id="paint2_linear_5857_29487" x1="22.0266" y1="12.4303" x2="5.82841" y2="21.2554" gradientUnits="userSpaceOnUse">
<stop stop-color="#25A9E0"/>
<stop offset="1" stop-color="#2E3191"/>
</linearGradient>
<linearGradient id="paint3_linear_5857_29487" x1="3.51494" y1="12.4357" x2="16.7948" y2="31.7651" gradientUnits="userSpaceOnUse">
<stop stop-color="#25A9E0"/>
<stop offset="1" stop-color="#2E3191"/>
</linearGradient>
<linearGradient id="paint4_linear_5857_29487" x1="43.2813" y1="12.799" x2="13.0246" y2="48.9823" gradientUnits="userSpaceOnUse">
<stop stop-color="#B22A77"/>
<stop offset="1" stop-color="#FE3E81"/>
</linearGradient>
<linearGradient id="paint5_linear_5857_29487" x1="28.0471" y1="26.4357" x2="39.3443" y2="33.6638" gradientUnits="userSpaceOnUse">
<stop stop-color="#FF9FD4"/>
<stop offset="1" stop-color="#FE3E81"/>
</linearGradient>
<linearGradient id="paint6_linear_5857_29487" x1="27.8211" y1="34.6322" x2="44.25" y2="26.2445" gradientUnits="userSpaceOnUse">
<stop offset="1.38522e-07" stop-color="#FF9FD4"/>
<stop offset="1" stop-color="#FE3E81"/>
</linearGradient>
<linearGradient id="paint7_linear_5857_29487" x1="46.2786" y1="35.0232" x2="33.5212" y2="15.3443" gradientUnits="userSpaceOnUse">
<stop offset="2.82373e-07" stop-color="#FE3E81"/>
<stop offset="1" stop-color="#B22A77"/>
</linearGradient>
</defs>
</svg>
