<svg width="24" height="24" viewBox="0 0 24 24" fill="none" xmlns="http://www.w3.org/2000/svg">
<path d="M2.14062 15.3932C5.11454 15.2776 7.94508 13.853 10.2969 12.1464C13.8536 9.56792 15.9002 5.39149 15.7822 1L13.0511 1.074C12.9563 4.5613 11.7816 13.7906 2.14062 15.3932Z" fill="url(#paint0_linear_5857_29483)"/>
<path d="M13.0511 1.07031L9.84829 1.15587C9.33028 1.16975 8.92096 1.60219 8.93484 2.1202L9.10134 8.32703C9.10134 8.32703 9.15222 13.9627 2.14062 15.3918C11.7816 13.7892 12.9563 4.55992 13.0511 1.07031Z" fill="url(#paint1_linear_5857_29483)"/>
<path d="M9.11148 8.32617L3.23765 8.48342C2.53465 8.50192 1.98195 9.08699 2.00045 9.78769L2.05826 11.9592C7.55283 11.6747 9.11148 8.32617 9.11148 8.32617Z" fill="url(#paint2_linear_5857_29483)"/>
<path d="M9.1134 8.32617C9.1134 8.32617 7.55476 11.6747 2.0625 11.9615L2.155 15.3909C9.16428 13.9618 9.1134 8.32617 9.1134 8.32617Z" fill="url(#paint3_linear_5857_29483)"/>
<path d="M22.9841 8.33203C20.0079 8.36672 17.1404 9.71724 14.7446 11.3591C11.1185 13.8428 8.96094 17.9614 8.96094 22.3552H11.692C11.884 18.8702 13.3039 9.6733 22.9841 8.33203Z" fill="url(#paint4_linear_5857_29483)"/>
<path d="M11.7031 22.3529H15.0309C15.4818 22.3529 15.8472 21.9875 15.8472 21.5366V15.2072C15.8472 15.2072 15.9466 9.57155 22.9952 8.33203C13.3126 9.6733 11.8928 18.8702 11.7031 22.3529Z" fill="url(#paint5_linear_5857_29483)"/>
<path d="M15.8438 15.2074H22.0506C22.5709 15.2074 22.9918 14.7865 22.9918 14.2662V11.7617C17.4903 11.9028 15.8438 15.2074 15.8438 15.2074Z" fill="url(#paint6_linear_5857_29483)"/>
<path d="M15.8438 15.2072C15.8438 15.2072 17.4903 11.9026 22.9918 11.7615V8.33203C15.9432 9.57155 15.8438 15.2072 15.8438 15.2072Z" fill="url(#paint7_linear_5857_29483)"/>
<defs>
<linearGradient id="paint0_linear_5857_29483" x1="3.53544" y1="17.2877" x2="18.1736" y2="-1.20298" gradientUnits="userSpaceOnUse">
<stop stop-color="#25A9E0"/>
<stop offset="1" stop-color="#2E3191"/>
</linearGradient>
<linearGradient id="paint1_linear_5857_29483" x1="10.9688" y1="10.2643" x2="5.27225" y2="6.83121" gradientUnits="userSpaceOnUse">
<stop stop-color="#25A9E0"/>
<stop offset="1" stop-color="#2E3191"/>
</linearGradient>
<linearGradient id="paint2_linear_5857_29483" x1="11.0133" y1="6.21515" x2="2.91421" y2="10.6277" gradientUnits="userSpaceOnUse">
<stop stop-color="#25A9E0"/>
<stop offset="1" stop-color="#2E3191"/>
</linearGradient>
<linearGradient id="paint3_linear_5857_29483" x1="1.75747" y1="6.21785" x2="8.3974" y2="15.8825" gradientUnits="userSpaceOnUse">
<stop stop-color="#25A9E0"/>
<stop offset="1" stop-color="#2E3191"/>
</linearGradient>
<linearGradient id="paint4_linear_5857_29483" x1="21.6407" y1="6.39951" x2="6.5123" y2="24.4911" gradientUnits="userSpaceOnUse">
<stop stop-color="#B22A77"/>
<stop offset="1" stop-color="#FE3E81"/>
</linearGradient>
<linearGradient id="paint5_linear_5857_29483" x1="14.0274" y1="13.2178" x2="19.6761" y2="16.8319" gradientUnits="userSpaceOnUse">
<stop stop-color="#FF9FD4"/>
<stop offset="1" stop-color="#FE3E81"/>
</linearGradient>
<linearGradient id="paint6_linear_5857_29483" x1="13.9105" y1="17.3171" x2="22.125" y2="13.1232" gradientUnits="userSpaceOnUse">
<stop offset="1.38522e-07" stop-color="#FF9FD4"/>
<stop offset="1" stop-color="#FE3E81"/>
</linearGradient>
<linearGradient id="paint7_linear_5857_29483" x1="23.1393" y1="17.5116" x2="16.7606" y2="7.67217" gradientUnits="userSpaceOnUse">
<stop offset="2.82373e-07" stop-color="#FE3E81"/>
<stop offset="1" stop-color="#B22A77"/>
</linearGradient>
</defs>
</svg>
